<svg width="444" height="264" viewBox="0 0 444 264" fill="none" xmlns="http://www.w3.org/2000/svg">
<g clip-path="url(#clip0_6_5)">
<path d="M-1.2806 221.466V219.645H15.0499C18.571 219.645 21.7279 220.151 24.5204 221.163C27.3535 222.134 29.7616 223.551 31.7447 225.412C33.7279 227.274 35.2253 229.541 36.2371 232.212C37.2894 234.842 37.8156 237.797 37.8156 241.075C37.8156 244.353 37.2894 247.328 36.2371 249.999C35.2253 252.63 33.7279 254.917 31.7447 256.859C29.7616 258.762 27.3535 260.219 24.5204 261.23C21.7279 262.242 18.571 262.748 15.0499 262.748H-1.2806V260.927H-0.612811C0.844189 260.927 2.03812 260.805 2.96898 260.563C3.89984 260.279 4.36527 259.713 4.36527 258.863V223.53C4.36527 222.761 3.89984 222.235 2.96898 221.952C2.03812 221.628 0.844189 221.466 -0.612811 221.466H-1.2806ZM14.9892 221.709H7.88636V260.684H14.9892C18.0246 260.684 20.7161 260.259 23.0634 259.409C25.4513 258.519 27.4547 257.224 29.0736 255.524C30.6925 253.824 31.9269 251.76 32.7768 249.331C33.6267 246.903 34.0516 244.151 34.0516 241.075C34.0516 237.999 33.6267 235.267 32.7768 232.88C31.9269 230.451 30.6925 228.407 29.0736 226.748C27.4547 225.089 25.4513 223.834 23.0634 222.984C20.7161 222.134 18.0246 221.709 14.9892 221.709ZM104.253 251.031V262.748H73.6562V260.927H74.2633C75.7203 260.927 76.9143 260.805 77.8451 260.563C78.8164 260.279 79.3021 259.713 79.3021 258.863V223.53C79.3021 222.681 78.8164 222.134 77.8451 221.891C76.9143 221.608 75.7203 221.466 74.2633 221.466H73.6562V219.645H102.614V229.844H100.732L100.125 224.259C100.044 223.53 99.7406 222.984 99.2145 222.62C98.7288 222.256 97.9598 222.013 96.9075 221.891C95.8957 221.77 94.5399 221.709 92.8401 221.709H82.7625V260.684H94.1149C95.4101 260.684 96.523 260.664 97.4539 260.623C98.4252 260.542 99.2145 260.401 99.8215 260.198C100.429 259.996 100.874 259.733 101.157 259.409C101.481 259.085 101.663 258.66 101.703 258.134L102.311 251.031H104.253ZM81.4876 239.74C83.5517 239.699 85.4944 239.659 87.3156 239.618C89.1369 239.578 90.8772 239.537 92.5365 239.497C94.2364 239.416 95.8957 239.335 97.5146 239.254V242.107C95.8957 241.986 94.2364 241.905 92.5365 241.864C90.8772 241.783 89.1369 241.723 87.3156 241.682C85.4944 241.642 83.5517 241.601 81.4876 241.561V239.74ZM158.616 261.291C160.599 261.291 162.339 260.967 163.837 260.32C165.334 259.632 166.508 258.62 167.358 257.284C168.208 255.908 168.633 254.208 168.633 252.185C168.633 250.485 168.309 249.068 167.661 247.935C167.014 246.761 166.123 245.81 164.99 245.082C163.857 244.353 162.562 243.746 161.105 243.261C159.688 242.775 158.211 242.31 156.673 241.864C155.095 241.379 153.516 240.853 151.938 240.286C150.359 239.679 148.923 238.93 147.627 238.04C146.373 237.149 145.361 236.016 144.592 234.64C143.864 233.264 143.499 231.564 143.499 229.541C143.499 227.355 144.025 225.493 145.078 223.955C146.13 222.377 147.567 221.163 149.388 220.313C151.25 219.463 153.334 219.038 155.641 219.038C157.786 219.038 159.688 219.402 161.348 220.131C163.007 220.819 164.423 221.851 165.597 223.227C166.771 224.603 167.661 226.283 168.268 228.266L166.751 227.659L167.418 219.645H169.422V230.451H167.236C166.71 228.509 165.901 226.849 164.808 225.473C163.756 224.097 162.481 223.025 160.983 222.256C159.486 221.487 157.766 221.102 155.823 221.102C153.921 221.102 152.282 221.426 150.906 222.073C149.53 222.721 148.457 223.652 147.688 224.866C146.96 226.04 146.595 227.456 146.595 229.116C146.595 230.694 146.899 232.03 147.506 233.122C148.154 234.175 149.024 235.065 150.116 235.794C151.209 236.482 152.444 237.068 153.82 237.554C155.236 238.04 156.734 238.505 158.312 238.95C160.012 239.396 161.651 239.922 163.229 240.529C164.848 241.136 166.305 241.905 167.6 242.836C168.936 243.726 169.988 244.88 170.757 246.296C171.526 247.672 171.911 249.392 171.911 251.456C171.911 254.006 171.304 256.171 170.09 257.952C168.916 259.733 167.317 261.089 165.294 262.02C163.31 262.91 161.105 263.355 158.676 263.355C156.046 263.355 153.698 262.93 151.634 262.08C149.57 261.19 147.81 259.935 146.353 258.316C144.936 256.657 143.884 254.654 143.196 252.306L144.653 253.338L143.985 262.748H141.86V249.817H144.228C144.916 252.205 145.907 254.269 147.202 256.009C148.498 257.709 150.096 259.025 151.998 259.955C153.941 260.846 156.147 261.291 158.616 261.291ZM213.643 258.863V223.53C213.643 222.681 213.157 222.134 212.186 221.891C211.255 221.608 210.061 221.466 208.604 221.466H207.997V219.645H222.749V221.466H222.081C220.665 221.466 219.471 221.608 218.5 221.891C217.569 222.134 217.103 222.681 217.103 223.53V258.863C217.103 259.713 217.569 260.279 218.5 260.563C219.471 260.805 220.665 260.927 222.081 260.927H222.749V262.748H207.997V260.927H208.604C210.061 260.927 211.255 260.805 212.186 260.563C213.157 260.279 213.643 259.713 213.643 258.863ZM295.123 245.385V256.495C294.556 257.264 293.767 258.053 292.755 258.863C291.784 259.632 290.61 260.36 289.234 261.048C287.858 261.736 286.34 262.303 284.681 262.748C283.021 263.153 281.261 263.355 279.399 263.355C276.242 263.355 273.369 262.829 270.779 261.777C268.229 260.724 266.023 259.227 264.161 257.284C262.3 255.301 260.863 252.954 259.851 250.242C258.88 247.53 258.394 244.515 258.394 241.197C258.394 237.959 258.92 234.984 259.972 232.272C261.025 229.561 262.462 227.213 264.283 225.23C266.104 223.247 268.249 221.729 270.718 220.677C273.187 219.584 275.817 219.038 278.61 219.038C280.998 219.038 283.163 219.423 285.106 220.191C287.089 220.92 288.789 221.972 290.205 223.348C291.662 224.724 292.735 226.303 293.423 228.084L292.209 228.387L292.998 219.645H295.001V231.605H292.816C292.209 229.622 291.258 227.841 289.962 226.262C288.708 224.684 287.129 223.449 285.227 222.559C283.365 221.628 281.16 221.163 278.61 221.163C276.263 221.163 274.077 221.648 272.053 222.62C270.07 223.551 268.33 224.906 266.833 226.687C265.376 228.428 264.222 230.532 263.372 233.001C262.563 235.429 262.158 238.161 262.158 241.197C262.158 244.313 262.542 247.106 263.311 249.574C264.121 252.043 265.254 254.148 266.711 255.888C268.209 257.588 270.03 258.903 272.175 259.834C274.32 260.765 276.748 261.23 279.46 261.23C281.807 261.23 283.811 260.927 285.47 260.32C287.129 259.713 288.485 259.025 289.537 258.256C290.59 257.446 291.359 256.778 291.844 256.252V245.385C291.844 244.536 291.359 243.989 290.387 243.746C289.416 243.463 288.202 243.321 286.745 243.321H286.138V241.5H299.676V243.321H299.433C298.219 243.321 297.187 243.463 296.337 243.746C295.527 243.989 295.123 244.536 295.123 245.385ZM333.92 262.748V260.927H334.587C335.559 260.927 336.409 260.846 337.137 260.684C337.866 260.522 338.452 260.239 338.898 259.834C339.343 259.429 339.565 258.944 339.565 258.377V223.53C339.565 222.964 339.343 222.539 338.898 222.256C338.452 221.972 337.845 221.77 337.076 221.648C336.348 221.527 335.518 221.466 334.587 221.466H333.92V219.645H344.179L367.431 259.166L366.884 259.591V222.559C366.884 222.357 366.621 222.175 366.095 222.013C365.569 221.851 364.901 221.729 364.092 221.648C363.282 221.527 362.432 221.466 361.542 221.466H360.631V219.645H374.837V221.466H374.169C373.238 221.466 372.388 221.547 371.619 221.709C370.85 221.871 370.243 222.154 369.798 222.559C369.393 222.923 369.191 223.409 369.191 224.016V262.748H365.791L340.962 220.616L341.872 220.677V259.834C341.872 260.036 342.135 260.219 342.662 260.38C343.188 260.542 343.855 260.684 344.665 260.805C345.515 260.886 346.365 260.927 347.215 260.927H348.125V262.748H333.92ZM427.772 261.291C429.755 261.291 431.495 260.967 432.993 260.32C434.49 259.632 435.664 258.62 436.514 257.284C437.364 255.908 437.789 254.208 437.789 252.185C437.789 250.485 437.465 249.068 436.817 247.935C436.17 246.761 435.279 245.81 434.146 245.082C433.013 244.353 431.718 243.746 430.261 243.261C428.844 242.775 427.367 242.31 425.829 241.864C424.251 241.379 422.672 240.853 421.094 240.286C419.515 239.679 418.079 238.93 416.784 238.04C415.529 237.149 414.517 236.016 413.748 234.64C413.02 233.264 412.655 231.564 412.655 229.541C412.655 227.355 413.182 225.493 414.234 223.955C415.286 222.377 416.723 221.163 418.544 220.313C420.406 219.463 422.49 219.038 424.797 219.038C426.942 219.038 428.844 219.402 430.504 220.131C432.163 220.819 433.58 221.851 434.753 223.227C435.927 224.603 436.817 226.283 437.424 228.266L435.907 227.659L436.574 219.645H438.578V230.451H436.392C435.866 228.509 435.057 226.849 433.964 225.473C432.912 224.097 431.637 223.025 430.139 222.256C428.642 221.487 426.922 221.102 424.979 221.102C423.077 221.102 421.438 221.426 420.062 222.073C418.686 222.721 417.613 223.652 416.844 224.866C416.116 226.04 415.751 227.456 415.751 229.116C415.751 230.694 416.055 232.03 416.662 233.122C417.31 234.175 418.18 235.065 419.273 235.794C420.365 236.482 421.6 237.068 422.976 237.554C424.392 238.04 425.89 238.505 427.468 238.95C429.168 239.396 430.807 239.922 432.386 240.529C434.004 241.136 435.461 241.905 436.757 242.836C438.092 243.726 439.144 244.88 439.913 246.296C440.682 247.672 441.067 249.392 441.067 251.456C441.067 254.006 440.46 256.171 439.246 257.952C438.072 259.733 436.473 261.089 434.45 262.02C432.467 262.91 430.261 263.355 427.832 263.355C425.202 263.355 422.854 262.93 420.79 262.08C418.726 261.19 416.966 259.935 415.509 258.316C414.092 256.657 413.04 254.654 412.352 252.306L413.809 253.338L413.141 262.748H411.016V249.817H413.384C414.072 252.205 415.063 254.269 416.359 256.009C417.654 257.709 419.252 259.025 421.155 259.955C423.097 260.846 425.303 261.291 427.772 261.291Z" fill="#EF8A17"/>
<path fill-rule="evenodd" clip-rule="evenodd" d="M444.244 0H-0.592163V195.748H44.1809V3.8147e-06H105.901L146.241 117.524C147.227 120.572 148.079 123.53 148.796 126.398C149.603 129.267 150.32 132.36 150.947 135.677H151.62C152.247 132.36 152.964 129.267 153.771 126.398C154.578 123.53 155.474 120.572 156.46 117.524L196.666 3.8147e-06H258.79V195.748H283.999V3.8147e-06H404.75V35.4991H329.314V83.6381H362.157V116.717H329.314V195.748H444.244V0ZM214.147 195.748V77.4527V67.3677C214.236 63.6026 214.416 60.1961 214.684 57.1482H213.878C213.34 60.2858 212.623 63.6923 211.726 67.3677C210.83 70.9535 209.933 74.3151 209.037 77.4527L169.65 195.748H214.147ZM129.824 195.748L90.3029 77.4527C89.3168 74.3151 88.3307 70.7742 87.3446 66.8298C86.4482 62.7958 85.8207 59.5686 85.4621 57.1482H84.6553C84.8346 59.5686 84.9691 62.7958 85.0587 66.8298C85.238 70.8638 85.3276 74.4048 85.3276 77.4527V195.748H129.824Z" fill="#051E3C"/>
</g>
<defs>
<clipPath id="clip0_6_5">
<rect width="444" height="264" fill="white"/>
</clipPath>
</defs>
</svg>
